<?xml version="1.0" standalone="no"?><!DOCTYPE svg PUBLIC "-//W3C//DTD SVG 1.1//EN" "http://www.w3.org/Graphics/SVG/1.1/DTD/svg11.dtd"><svg t="1718933311590" class="icon" viewBox="0 0 3501 1024" version="1.1" xmlns="http://www.w3.org/2000/svg" p-id="4092" xmlns:xlink="http://www.w3.org/1999/xlink" width="683.7890625" height="200"><path d="M1501.415 675.74l15.856-23.386h-30.06l-61.836 210.58c-3.336 12.553-5.02 22.562-5.02 31.745h-1.653c0-12.553-1.651-22.561-4.195-31.744l-52.62-210.58h-30.092l72.67 263.233h29.267l64.347-210.58c1.652-14.204 3.336-23.42 3.336-29.267z m-12.552-24.212h27.582l57.674 210.58c3.336 12.553 5.021 22.562 5.021 31.712h1.652c0-4.162 0.859-12.52 2.51-23.354 0.826-3.37 1.652-5.847 1.652-7.531l54.338-210.58h31.744l-75.215 263.233h-29.233l-61.837-210.58a188.317 188.317 0 0 1-2.51-29.267h-1.652l-11.693-24.213z m250.715 152.907h114.49c-1.685-38.45-20.91-58.468-56.816-60.152-35.939 3.303-55.164 23.387-57.674 60.152z m114.49 50.143l29.233 7.53c-10.867 38.417-38.45 57.642-84.397 56.816-58.467-2.51-89.419-35.113-91.07-96.95 2.477-65.998 32.57-100.252 89.385-102.763 55.99 1.652 85.223 35.94 86.908 102.764v6.705h-146.234c1.652 42.612 21.735 65.999 59.326 68.51 30.06-0.827 48.491-15.03 56.816-42.612z m213.058-70.194l27.582-9.183c-10.868-36.765-36.765-55.99-78.551-56.815-54.305 2.477-82.713 36.764-84.398 101.078 0.826 64.347 29.234 96.95 85.224 98.635 46.806 1.651 73.563-20.051 80.235-66.032l-29.233-6.672c-2.51 33.428-19.225 50.143-50.143 50.143-37.624 0-56.816-25.105-56.816-76.074 0-51.794 19.192-77.692 56.816-77.692 25.071 2.51 41.785 16.715 49.284 42.612z m234.826 6.673v122.02h-29.267V794.427c0-35.94-14.203-54.338-43.437-54.338-34.254 4.195-52.653 22.56-55.164 55.164v118.651h-29.233V650.67h29.233v100.286c15.063-21.735 35.113-33.428 61.87-34.254 44.263 0 66.824 24.246 65.998 74.356z m192.182 48.49v-25.104c-3.337 6.706-22.561 11.727-56.816 14.204-35.08 4.195-51.794 16.748-50.969 36.798 0.826 19.225 15.03 29.234 43.438 29.234 39.308-2.51 61.01-20.877 64.347-55.164z m-104.448-57.673l-27.582-7.532c9.183-39.275 38.45-58.467 85.223-56.815 51.828-0.826 76.9 23.42 75.214 73.53v77.724c-0.825 20.91 2.51 35.94 10.901 45.122h-27.582a39.176 39.176 0 0 1-9.216-25.897c-15.855 20.877-40.96 31.744-75.214 31.744-40.101-1.651-61.837-18.366-64.314-50.143 0.826-36.765 24.213-57.641 69.368-61.836 36.731-3.303 59.293-8.357 66.824-14.204 2.51-35.08-13.378-51.795-47.633-50.11-32.602-2.51-50.968 10.835-55.99 38.417z m269.906 116.141l5.021 14.204a79.542 79.542 0 0 1-29.266 5.02c-27.55 0.827-40.102-13.344-39.276-41.785v-128.66h-25.897v-23.42h25.897v-51.795l27.582-14.204v65.998h35.94v23.42h-35.94v128.66c-0.826 16.715 5.847 24.247 20.91 23.42 5.846 0 10.867 0 15.03-0.858z m231.457-219.764h-76.866v103.623h76.866c41.786-0.826 63.521-19.225 64.347-54.305-1.651-31.778-23.387-48.492-64.347-49.318z m5.021 130.379h-81.92v106.958h-29.2V652.321h112.805c53.48 2.544 82.713 28.44 88.56 77.758 0 50.969-30.919 77.692-90.245 78.55z m274.928 30.918v-25.105c-3.337 6.706-22.561 11.727-56.816 14.204-35.113 4.195-51.827 16.748-50.969 36.798 0.826 19.225 15.03 29.234 43.438 29.234 39.275-2.51 61.01-20.877 64.347-55.164z m-103.623-57.674l-27.581-7.532c9.216-39.275 38.45-58.467 85.223-56.815 51.827-0.826 76.899 23.42 75.214 73.53v77.724c-0.826 20.91 2.51 35.94 10.9 45.122h-27.614a39.21 39.21 0 0 1-9.183-25.897c-15.856 20.877-40.96 31.744-75.215 31.744-40.1-1.651-61.836-18.366-64.346-50.143 0.858-36.765 24.245-57.641 69.367-61.836 36.765-3.303 59.326-8.357 66.858-14.204 2.51-35.08-13.378-51.795-47.633-50.11-32.603-2.51-51.827 10.835-55.99 38.417z m357.64-59.326h-30.059l-54.338 147.06a25.27 25.27 0 0 0-4.162 13.377h-1.651c0-0.826-0.86-4.162-2.544-10.867-0.826-2.51-1.651-4.162-1.651-5.021-1.652-3.303-19.225-51.795-50.97-144.55h-31.776l73.563 183.825a245.991 245.991 0 0 1-10.901 26.756c-7.498 17.54-19.159 25.898-32.57 25.072a61.11 61.11 0 0 1-18.366-2.51l-4.195 16.714c7.531 4.162 16.714 6.672 27.582 7.498 25.897 4.195 45.948-13.345 59.326-54.305 9.183-17.54 36.765-85.223 82.713-203.05zM1691.12 317.242c12.52-40.927 20.051-86.875 20.877-137.844h-40.101v1.652c2.51 51.002 9.183 96.124 19.224 136.225z m-269.08-21.702V247.08h177.978v48.459h-177.978z m198.854 110.327c0 4.162 0.859 10.835 2.543 19.192v19.225c12.553-16.714 25.039-34.255 35.906-50.969-14.203-40.96-23.386-85.223-27.548-133.714a69.995 69.995 0 0 0-10.901 15.062c-1.652 2.51-2.478 4.988-4.162 6.673a268.817 268.817 0 0 0-25.072-55.164c2.51-4.162 5.021-7.498 6.706-10.835H1428.71c-12.519 20.05-25.071 38.417-35.906 55.164V527.03h-59.359V349.019c-2.477 2.51-7.498 8.357-15.03 16.714l-16.714 16.714c-4.162-20.05-11.693-42.611-23.387-70.193 38.417-43.437 71.846-91.07 101.938-142.039l38.45 27.55V87.468a852.232 852.232 0 0 1-101.971 116.142c-1.652-2.51-4.162-7.498-8.324-12.552a259.534 259.534 0 0 0-27.582-44.264A902.673 902.673 0 0 0 1378.6 34.816l52.62 35.94a21.405 21.405 0 0 0-8.356 10.9h44.296v86.875h19.225V38.978h50.968v129.487h19.225V82.482h48.458v118.651c20.877-43.437 38.45-99.427 52.654-167.11l59.326 12.552a601.517 601.517 0 0 1-20.91 71.846h89.419v61.836h-16.715c-4.162 81.92-18.366 152.94-42.611 213.917a272.979 272.979 0 0 0 61.836 66.031c-14.204 26.757-23.387 49.285-27.582 67.684a374.355 374.355 0 0 1-65.998-70.194 372.637 372.637 0 0 1-63.521 71.878 1570.849 1570.849 0 0 0-25.072-52.653c-20.876 15.855-39.275 29.233-55.164 42.611l-27.549-38.45c6.673-8.356 10.868-17.54 10.868-27.581v-74.356h-46.807c2.51 65.999-15.03 115.283-52.653 146.234-8.357-12.552-20.876-26.756-38.417-42.612 25.072-20.05 38.417-49.317 38.417-89.418v-20.91c1.685-18.365 2.51-33.428 2.51-44.263h150.43v103.59c1.65 0 2.51-1.652 4.161-4.162 3.37-5.021 14.204-11.694 29.267-21.736z m628.439 40.068v-48.49h-164.6v48.49h164.6z m70.193-188.878v52.653H2017.05v-52.62h302.476z m0-80.202v55.164H2017.05v-55.164h302.476z m29.267-84.398v56.816H1995.28V92.49h135.366c-1.652-2.51-2.51-6.672-4.195-10.867-2.478-8.357-8.358-20.05-16.682-35.94l76.04-12.552c8.358 14.204 17.54 34.288 27.55 59.36h135.399z m-412.837-57.641c-26.757 100.286-56.816 179.695-88.593 238.988 1.652 8.358 3.336 20.91 6.706 38.45 5.813 26.756 9.183 45.948 10.834 56.815a14266.632 14266.632 0 0 0 35.94-61.836v218.112h63.52V165.161c12.553-35.113 25.072-72.704 38.417-111.98l-66.824-18.398z m148.71 491.388h-67.682V337.358h302.51v188.846h-70.194v-25.072h-164.633v25.072z m579.09-150.396a369.135 369.135 0 0 0 92.787-97.775h-193.04a462.848 462.848 0 0 0 100.252 97.775z m38.449-161.297h142.039v59.326c-26.724 49.318-64.314 96.124-111.98 139.562 51.002 20.876 110.328 35.08 178.011 42.611-14.204 20.91-27.582 44.264-40.101 70.194-76.04-11.694-144.582-33.429-205.56-65.999-65.206 32.57-135.366 55.164-211.406 67.684-12.553-25.105-25.93-46.807-40.134-63.522 71.878-8.357 133.714-25.071 186.334-50.968-35.08-30.06-67.683-66.032-97.775-107.785l44.296-27.581h-81.06v-63.555h161.296v-56.815h-198.888V95.827h198.855V32.339h76.073v63.455h197.202v61.836h-197.202v56.815z m452.08 45.123l52.653-35.94c8.093 11.628 16.45 23.024 25.071 34.288 15.856 20.05 37.591 49.284 65.999 88.56l-59.326 38.449a1177.17 1177.17 0 0 0-84.398-125.357z m-71.879-228.98l66.032 16.714a1992.704 1992.704 0 0 1-35.94 93.58v383.604h-70.193V274.663c-12.552 20.877-26.756 42.612-42.612 63.521-1.651-6.705-4.162-19.225-8.357-35.939a1198.014 1198.014 0 0 1-12.552-56.815c45.155-71.02 79.41-142.93 103.622-214.776z m53.512 162.948h205.56v222.274c0 25.072-11.726 38.45-34.254 38.45-24.246 0-48.492-1.685-74.389-4.195h-6.672c8.357 24.245 14.203 45.947 16.714 66.031v6.673c14.204 0 34.254-0.826 59.326-2.51h40.101c45.122 0 67.683-26.757 67.683-80.236V194.428h70.194v-67.683h-70.194v-88.56h-70.193v88.56h-203.909v66.857z" fill="#231815" p-id="4093"></path><path d="M607.496 519.796c-14.7 0-29.564 14.831-29.564 29.597 0 14.963 14.865 29.596 29.564 29.596h0.033c22.363 0 36.996-14.633 36.996-29.596 0-14.766-14.633-29.597-36.996-29.597zM304.36 305.152c-22.164 0-44.56 14.666-44.56 36.93 0 22.198 22.396 36.996 44.56 36.996v0.033c22.165 0 36.93-14.864 36.93-37.029 0-22.264-14.765-36.93-36.93-36.93z m206.98 73.992c22.264 0 36.996-14.864 36.996-37.062 0-22.264-14.732-36.93-36.996-36.93-22.164 0-44.428 14.666-44.428 36.93 0 22.198 22.264 37.03 44.428 37.03zM770.18 519.796c-14.633 0-29.399 14.831-29.399 29.597 0 14.963 14.799 29.596 29.4 29.596 22.197 0 37.028-14.633 37.028-29.596 0-14.766-14.864-29.597-36.996-29.597z" fill="#44AF35" p-id="4094"></path><path d="M861.35 9.745H171.965a153.005 153.005 0 0 0-152.94 152.939V858.74a153.005 153.005 0 0 0 152.94 152.939h689.383a153.005 153.005 0 0 0 152.906-152.94V162.685A153.005 153.005 0 0 0 861.316 9.744z m-460.9 673.032c-36.963 0-66.626-7.532-103.622-14.865l-103.391 51.86L223 630.785c-73.992-51.762-118.322-118.487-118.322-199.78 0-140.783 133.186-251.639 295.771-251.639 145.375 0 272.813 88.593 298.38 207.84a252.763 252.763 0 0 0-28.473-1.752c-140.487 0-251.442 104.878-251.442 234.166a220.655 220.655 0 0 0 9.117 61.969 349.378 349.378 0 0 1-27.582 1.189z m539.813-66.725c0 66.725-44.263 125.853-103.589 170.38l22.23 73.96-81.093-44.462c-29.597 7.399-59.293 14.864-88.725 14.864-140.717 0-251.574-96.223-251.574-214.71 0-118.354 110.823-214.775 251.574-214.775 132.889 0 251.21 96.454 251.21 214.743z" fill="#44AF35" p-id="4095"></path></svg>