<?xml version="1.0" standalone="no"?><!DOCTYPE svg PUBLIC "-//W3C//DTD SVG 1.1//EN" "http://www.w3.org/Graphics/SVG/1.1/DTD/svg11.dtd"><svg t="1718933467712" class="icon" viewBox="0 0 3072 1024" version="1.1" xmlns="http://www.w3.org/2000/svg" p-id="5082" xmlns:xlink="http://www.w3.org/1999/xlink" width="600" height="200"><path d="M146.0914 0h729.77a146.09 146.09 0 0 1 146.091 146.432v731.136A146.09 146.09 0 0 1 875.8624 1024H146.0904A146.09 146.09 0 0 1 0.0014 877.568V146.432A146.09 146.09 0 0 1 146.0904 0z" fill="#239FDB" p-id="5083"></path><path d="M678.2304 602.795v-2.39h2.048a502.443 502.443 0 0 0 82.261-209.578h-13.653v-3.072H564.2244v-70.656h243.371v-36.864h-243.37V158.379H443.7334v121.856H187.0504v36.864h256.683v73.045H235.8624v36.523h402.09a741.717 741.717 0 0 1-61.44 143.36h4.779-7.168l2.39-4.096-190.123-61.099a409.6 409.6 0 0 0-177.835 6.144C128.0004 536.917 54.9554 587.093 65.5364 705.877S197.9744 869.035 281.6004 869.035a420.181 420.181 0 0 0 319.488-166.23l13.995-17.066 23.21 11.264c249.515 121.856 383.318 170.666 383.318 170.666V713.045zM286.0384 803.157c-100.352 15.36-176.47-64.17-180.907-92.842A134.485 134.485 0 0 1 226.6464 573.78c50.517-7.509 129.706 1.707 298.666 75.435v2.048h-2.048a382.293 382.293 0 0 1-237.226 151.893z" fill="#FFFFFF" p-id="5084"></path><path d="M2632.3634 944.81l-15.019-49.834h-91.477l-17.75 49.835h-42.666l92.843-247.808h25.941l98.304 247.808z m-52.907-174.762h-9.216l-34.133 100.01h75.093z m-289.792 77.824h-55.978v96.939h-41.302V703.488h97.28a72.363 72.363 0 0 1 0 144.384z m-2.73-112.299h-53.248v81.238h53.248a40.619 40.619 0 1 0 0-81.238z m-315.051-35.84h41.984v238.934h-41.984zM1809.0674 939.35h-143.36V694.955h38.912V911.36h104.448z m-335.872 5.462l-15.019-49.835h-92.842l-17.75 49.835h-41.301l93.184-247.808h25.941l98.304 247.808z m-52.907-174.763h-9.216l-34.133 100.01h75.093z m1552.043-67.243l-70.997 125.952v109.91h-44.374V827.05l-74.752-124.246h37.547l55.979 97.622 56.32-97.622zM1631.2324 465.92l7.168-5.803c122.198-104.448 157.355-162.474 174.422-238.933h-17.408v-3.413h-164.182v-64.854h214.358v-42.325h-214.358V23.211h-112.298v87.381h-217.088v42.325h217.088v64.854h-179.542v42.666h361.814a426.325 426.325 0 0 1-127.318 164.864 571.733 571.733 0 0 1-124.928-132.437h-87.381a571.05 571.05 0 0 0 158.379 170.667 802.816 802.816 0 0 1-218.112 95.573v49.835a1018.539 1018.539 0 0 0 276.48-106.838 916.821 916.821 0 0 0 273.066 106.838 467.627 467.627 0 0 1 0-49.835 732.16 732.16 0 0 1-220.16-93.184z m797.696-431.787h-94.89v98.987h-246.784v41.984h246.784V532.48a22.528 22.528 0 0 1-24.918 24.917h-49.834l2.389 39.936h141.995a41.984 41.984 0 0 0 24.917-37.546V175.104h37.547V133.12h-37.547z" fill="#4C4948" p-id="5085"></path><path d="M2211.8404 240.299h-87.381l62.464 187.392h87.381l-62.464-187.392z m-236.885-209.92c-19.456 48.469-99.67 249.856-99.67 249.856h82.262v312.32h84.65V197.973h-42.666l75.093-167.253z m664.917 84.309h303.446v60.757h102.4V107.18s3.413-29.696-24.918-29.696h-170.666v-58.71h-114.688v59.734h-202.07v96.938h106.496zM3072.0004 580.267l-49.834-120.15h-99.67l34.134 82.262h-116.395V382.976h206.848v-40.277h-206.848v-82.262h206.848v-39.936h-513.365v39.936h209.237V342.7h-209.237v40.277h209.237v159.403h-209.237v37.546h438.613v0.342h99.67z" fill="#4C4948" p-id="5086"></path></svg>